M48
METRIC,LZ,000.000
;FILE_FORMAT=3:3
;TYPE=PLATED
;Layer: PTH_Through
;EasyEDA v6.5.50, 2025-05-04 21:41:00
;ca8d08ed92a845228751cf11d91fab5a,29578758438443b98db2ef743fe8f290,10
;Gerber Generator version 0.2
;Holesize 1 = 0.650 mm
T01C0.650
;Holesize 2 = 0.900 mm
T02C0.900
;Holesize 3 = 0.966 mm
T03C0.966
;Holesize 4 = 1.101 mm
T04C1.101
;Holesize 5 = 1.301 mm
T05C1.301
%
G05
G90
T01
X042575Y052324
X041275Y052324
X039975Y052324
X014381Y052324
X013081Y052324
X011781Y052324
T02
X012065Y069596
X012065Y077216
X015875Y074676
X015875Y082296
X037211Y075311
X037211Y082931
X041021Y070739
X041021Y078359
T03
X017399Y061086
X017399Y058546
X036322Y061340
X036322Y058800
T04
X006751Y058674
X009251Y058674
X046208Y059182
X043708Y059182
T05
X026797Y058387
X026797Y038387
M30
