G04 Layer: TopSilkscreenLayer*
G04 EasyEDA v6.5.50, 2025-05-04 21:41:00*
G04 ca8d08ed92a845228751cf11d91fab5a,29578758438443b98db2ef743fe8f290,10*
G04 Gerber Generator version 0.2*
G04 Scale: 100 percent, Rotated: No, Reflected: No *
G04 Dimensions in millimeters *
G04 leading zeros omitted , absolute positions ,4 integer and 5 decimal *
%FSLAX45Y45*%
%MOMM*%

%ADD10C,0.2032*%
%ADD11C,0.1524*%
%ADD12C,0.2540*%
%ADD13C,0.1270*%
%ADD14C,0.0130*%

%LPD*%
D10*
X2095500Y7962137D02*
G01*
X2095500Y7866634D01*
X2095500Y7962137D02*
G01*
X2131822Y7866634D01*
X2168143Y7962137D02*
G01*
X2131822Y7866634D01*
X2168143Y7962137D02*
G01*
X2168143Y7866634D01*
X2252725Y7930387D02*
G01*
X2252725Y7866634D01*
X2252725Y7916671D02*
G01*
X2243581Y7925815D01*
X2234691Y7930387D01*
X2220975Y7930387D01*
X2211831Y7925815D01*
X2202688Y7916671D01*
X2198115Y7903210D01*
X2198115Y7894065D01*
X2202688Y7880350D01*
X2211831Y7871205D01*
X2220975Y7866634D01*
X2234691Y7866634D01*
X2243581Y7871205D01*
X2252725Y7880350D01*
X2337308Y7962137D02*
G01*
X2337308Y7866634D01*
X2337308Y7916671D02*
G01*
X2328163Y7925815D01*
X2319020Y7930387D01*
X2305558Y7930387D01*
X2296413Y7925815D01*
X2287270Y7916671D01*
X2282697Y7903210D01*
X2282697Y7894065D01*
X2287270Y7880350D01*
X2296413Y7871205D01*
X2305558Y7866634D01*
X2319020Y7866634D01*
X2328163Y7871205D01*
X2337308Y7880350D01*
X2500884Y7948676D02*
G01*
X2491740Y7957565D01*
X2478277Y7962137D01*
X2459990Y7962137D01*
X2446527Y7957565D01*
X2437384Y7948676D01*
X2437384Y7939531D01*
X2441956Y7930387D01*
X2446527Y7925815D01*
X2455418Y7921244D01*
X2482850Y7912100D01*
X2491740Y7907781D01*
X2496311Y7903210D01*
X2500884Y7894065D01*
X2500884Y7880350D01*
X2491740Y7871205D01*
X2478277Y7866634D01*
X2459990Y7866634D01*
X2446527Y7871205D01*
X2437384Y7880350D01*
X2585465Y7916671D02*
G01*
X2576322Y7925815D01*
X2567431Y7930387D01*
X2553715Y7930387D01*
X2544572Y7925815D01*
X2535427Y7916671D01*
X2530856Y7903210D01*
X2530856Y7894065D01*
X2535427Y7880350D01*
X2544572Y7871205D01*
X2553715Y7866634D01*
X2567431Y7866634D01*
X2576322Y7871205D01*
X2585465Y7880350D01*
X2615438Y7962137D02*
G01*
X2620009Y7957565D01*
X2624581Y7962137D01*
X2620009Y7966710D01*
X2615438Y7962137D01*
X2620009Y7930387D02*
G01*
X2620009Y7866634D01*
X2654554Y7903210D02*
G01*
X2709163Y7903210D01*
X2709163Y7912100D01*
X2704591Y7921244D01*
X2700020Y7925815D01*
X2690875Y7930387D01*
X2677413Y7930387D01*
X2668270Y7925815D01*
X2659125Y7916671D01*
X2654554Y7903210D01*
X2654554Y7894065D01*
X2659125Y7880350D01*
X2668270Y7871205D01*
X2677413Y7866634D01*
X2690875Y7866634D01*
X2700020Y7871205D01*
X2709163Y7880350D01*
X2739136Y7930387D02*
G01*
X2739136Y7866634D01*
X2739136Y7912100D02*
G01*
X2752852Y7925815D01*
X2761741Y7930387D01*
X2775458Y7930387D01*
X2784602Y7925815D01*
X2789174Y7912100D01*
X2789174Y7866634D01*
X2873756Y7916671D02*
G01*
X2864611Y7925815D01*
X2855468Y7930387D01*
X2841752Y7930387D01*
X2832861Y7925815D01*
X2823718Y7916671D01*
X2819145Y7903210D01*
X2819145Y7894065D01*
X2823718Y7880350D01*
X2832861Y7871205D01*
X2841752Y7866634D01*
X2855468Y7866634D01*
X2864611Y7871205D01*
X2873756Y7880350D01*
X2903727Y7903210D02*
G01*
X2958338Y7903210D01*
X2958338Y7912100D01*
X2953765Y7921244D01*
X2949193Y7925815D01*
X2940050Y7930387D01*
X2926334Y7930387D01*
X2917190Y7925815D01*
X2908300Y7916671D01*
X2903727Y7903210D01*
X2903727Y7894065D01*
X2908300Y7880350D01*
X2917190Y7871205D01*
X2926334Y7866634D01*
X2940050Y7866634D01*
X2949193Y7871205D01*
X2958338Y7880350D01*
X3058159Y7930387D02*
G01*
X3085591Y7866634D01*
X3112770Y7930387D02*
G01*
X3085591Y7866634D01*
X3142741Y7944104D02*
G01*
X3151886Y7948676D01*
X3165602Y7962137D01*
X3165602Y7866634D01*
X3200145Y7889494D02*
G01*
X3195574Y7884921D01*
X3200145Y7880350D01*
X3204463Y7884921D01*
X3200145Y7889494D01*
X3261868Y7962137D02*
G01*
X3248152Y7957565D01*
X3239008Y7944104D01*
X3234690Y7921244D01*
X3234690Y7907781D01*
X3239008Y7884921D01*
X3248152Y7871205D01*
X3261868Y7866634D01*
X3271011Y7866634D01*
X3284474Y7871205D01*
X3293618Y7884921D01*
X3298190Y7907781D01*
X3298190Y7921244D01*
X3293618Y7944104D01*
X3284474Y7957565D01*
X3271011Y7962137D01*
X3261868Y7962137D01*
X2410713Y8231378D02*
G01*
X2336800Y8037576D01*
X2410713Y8231378D02*
G01*
X2484627Y8037576D01*
X2364486Y8102092D02*
G01*
X2456941Y8102092D01*
X2674874Y8231378D02*
G01*
X2545588Y8037576D01*
X2545588Y8231378D02*
G01*
X2674874Y8231378D01*
X2545588Y8037576D02*
G01*
X2674874Y8037576D01*
X2735834Y8231378D02*
G01*
X2735834Y8037576D01*
X2735834Y8231378D02*
G01*
X2818891Y8231378D01*
X2846577Y8222234D01*
X2855975Y8213089D01*
X2865120Y8194547D01*
X2865120Y8176005D01*
X2855975Y8157463D01*
X2846577Y8148320D01*
X2818891Y8139176D01*
X2735834Y8139176D02*
G01*
X2818891Y8139176D01*
X2846577Y8129778D01*
X2855975Y8120634D01*
X2865120Y8102092D01*
X2865120Y8074405D01*
X2855975Y8055863D01*
X2846577Y8046720D01*
X2818891Y8037576D01*
X2735834Y8037576D01*
X2926079Y8231378D02*
G01*
X2926079Y8037576D01*
X2926079Y8037576D02*
G01*
X3036824Y8037576D01*
D11*
X1765300Y6360741D02*
G01*
X1765300Y6251638D01*
X1765300Y6251638D02*
G01*
X1827644Y6251638D01*
X1861934Y6360741D02*
G01*
X1861934Y6251638D01*
X1861934Y6360741D02*
G01*
X1929475Y6360741D01*
X1861934Y6308788D02*
G01*
X1903498Y6308788D01*
X1861934Y6251638D02*
G01*
X1929475Y6251638D01*
X1963765Y6360741D02*
G01*
X1963765Y6251638D01*
X1963765Y6360741D02*
G01*
X2000135Y6360741D01*
X2015721Y6355547D01*
X2026112Y6345156D01*
X2031306Y6334765D01*
X2036503Y6319177D01*
X2036503Y6293200D01*
X2031306Y6277615D01*
X2026112Y6267223D01*
X2015721Y6256832D01*
X2000135Y6251638D01*
X1963765Y6251638D01*
X2070793Y6339959D02*
G01*
X2081184Y6345156D01*
X2096770Y6360741D01*
X2096770Y6251638D01*
X3657600Y6386141D02*
G01*
X3657600Y6277038D01*
X3657600Y6277038D02*
G01*
X3719944Y6277038D01*
X3754234Y6386141D02*
G01*
X3754234Y6277038D01*
X3754234Y6386141D02*
G01*
X3821775Y6386141D01*
X3754234Y6334188D02*
G01*
X3795798Y6334188D01*
X3754234Y6277038D02*
G01*
X3821775Y6277038D01*
X3856065Y6386141D02*
G01*
X3856065Y6277038D01*
X3856065Y6386141D02*
G01*
X3892435Y6386141D01*
X3908021Y6380947D01*
X3918412Y6370556D01*
X3923606Y6360165D01*
X3928803Y6344577D01*
X3928803Y6318600D01*
X3923606Y6303015D01*
X3918412Y6292623D01*
X3908021Y6282232D01*
X3892435Y6277038D01*
X3856065Y6277038D01*
X3968287Y6360165D02*
G01*
X3968287Y6365359D01*
X3973484Y6375750D01*
X3978678Y6380947D01*
X3989070Y6386141D01*
X4009852Y6386141D01*
X4020243Y6380947D01*
X4025437Y6375750D01*
X4030634Y6365359D01*
X4030634Y6354968D01*
X4025437Y6344577D01*
X4015046Y6328991D01*
X3963093Y6277038D01*
X4035828Y6277038D01*
X2616149Y3442639D02*
G01*
X2616149Y3333673D01*
X2616149Y3442639D02*
G01*
X2662885Y3442639D01*
X2678633Y3437559D01*
X2683713Y3432225D01*
X2689047Y3422065D01*
X2689047Y3411651D01*
X2683713Y3401237D01*
X2678633Y3395903D01*
X2662885Y3390823D01*
X2616149Y3390823D02*
G01*
X2662885Y3390823D01*
X2678633Y3385489D01*
X2683713Y3380409D01*
X2689047Y3369995D01*
X2689047Y3354501D01*
X2683713Y3344087D01*
X2678633Y3338753D01*
X2662885Y3333673D01*
X2616149Y3333673D01*
X2723337Y3422065D02*
G01*
X2733497Y3427145D01*
X2749245Y3442639D01*
X2749245Y3333673D01*
X878078Y6312407D02*
G01*
X872744Y6322821D01*
X862329Y6333236D01*
X852170Y6338315D01*
X831342Y6338315D01*
X820928Y6333236D01*
X810513Y6322821D01*
X805179Y6312407D01*
X800100Y6296660D01*
X800100Y6270752D01*
X805179Y6255257D01*
X810513Y6244844D01*
X820928Y6234429D01*
X831342Y6229350D01*
X852170Y6229350D01*
X862329Y6234429D01*
X872744Y6244844D01*
X878078Y6255257D01*
X912368Y6317487D02*
G01*
X922781Y6322821D01*
X938276Y6338315D01*
X938276Y6229350D01*
D10*
X637794Y6056376D02*
G01*
X637794Y5974334D01*
X596900Y6015481D02*
G01*
X678687Y6015481D01*
X901700Y6002781D02*
G01*
X983487Y6002781D01*
D11*
X4510277Y6363207D02*
G01*
X4504943Y6373621D01*
X4494529Y6384036D01*
X4484370Y6389115D01*
X4463541Y6389115D01*
X4453127Y6384036D01*
X4442713Y6373621D01*
X4437379Y6363207D01*
X4432300Y6347460D01*
X4432300Y6321552D01*
X4437379Y6306057D01*
X4442713Y6295644D01*
X4453127Y6285229D01*
X4463541Y6280150D01*
X4484370Y6280150D01*
X4494529Y6285229D01*
X4504943Y6295644D01*
X4510277Y6306057D01*
X4549647Y6363207D02*
G01*
X4549647Y6368287D01*
X4554981Y6378702D01*
X4560061Y6384036D01*
X4570475Y6389115D01*
X4591304Y6389115D01*
X4601718Y6384036D01*
X4606797Y6378702D01*
X4612131Y6368287D01*
X4612131Y6357873D01*
X4606797Y6347460D01*
X4596384Y6331965D01*
X4544568Y6280150D01*
X4617211Y6280150D01*
D10*
X4658106Y5729223D02*
G01*
X4658106Y5811265D01*
X4699000Y5770118D02*
G01*
X4617211Y5770118D01*
X4394200Y5782818D02*
G01*
X4312411Y5782818D01*
D11*
X4133341Y5627115D02*
G01*
X4122927Y5622036D01*
X4112513Y5611621D01*
X4107179Y5601207D01*
X4102100Y5585460D01*
X4102100Y5559552D01*
X4107179Y5544057D01*
X4112513Y5533644D01*
X4122927Y5523229D01*
X4133341Y5518150D01*
X4154170Y5518150D01*
X4164329Y5523229D01*
X4174743Y5533644D01*
X4180077Y5544057D01*
X4185158Y5559552D01*
X4185158Y5585460D01*
X4180077Y5601207D01*
X4174743Y5611621D01*
X4164329Y5622036D01*
X4154170Y5627115D01*
X4133341Y5627115D01*
X4148836Y5538723D02*
G01*
X4180077Y5507736D01*
X4219447Y5606287D02*
G01*
X4229861Y5611621D01*
X4245609Y5627115D01*
X4245609Y5518150D01*
X1313942Y5627115D02*
G01*
X1303528Y5622036D01*
X1293113Y5611621D01*
X1287779Y5601207D01*
X1282700Y5585460D01*
X1282700Y5559552D01*
X1287779Y5544057D01*
X1293113Y5533644D01*
X1303528Y5523229D01*
X1313942Y5518150D01*
X1334770Y5518150D01*
X1344929Y5523229D01*
X1355344Y5533644D01*
X1360678Y5544057D01*
X1365757Y5559552D01*
X1365757Y5585460D01*
X1360678Y5601207D01*
X1355344Y5611621D01*
X1344929Y5622036D01*
X1334770Y5627115D01*
X1313942Y5627115D01*
X1329436Y5538723D02*
G01*
X1360678Y5507736D01*
X1405381Y5601207D02*
G01*
X1405381Y5606287D01*
X1410462Y5616702D01*
X1415795Y5622036D01*
X1426210Y5627115D01*
X1446784Y5627115D01*
X1457197Y5622036D01*
X1462531Y5616702D01*
X1467612Y5606287D01*
X1467612Y5595873D01*
X1462531Y5585460D01*
X1452118Y5569965D01*
X1400047Y5518150D01*
X1472945Y5518150D01*
X964184Y7340600D02*
G01*
X1073150Y7340600D01*
X964184Y7340600D02*
G01*
X964184Y7387336D01*
X969263Y7402829D01*
X974597Y7408163D01*
X985012Y7413244D01*
X995426Y7413244D01*
X1005839Y7408163D01*
X1010920Y7402829D01*
X1016000Y7387336D01*
X1016000Y7340600D01*
X1016000Y7376921D02*
G01*
X1073150Y7413244D01*
X985012Y7447534D02*
G01*
X979678Y7457947D01*
X964184Y7473695D01*
X1073150Y7473695D01*
X1345184Y7848600D02*
G01*
X1454150Y7848600D01*
X1345184Y7848600D02*
G01*
X1345184Y7895336D01*
X1350263Y7910829D01*
X1355597Y7916163D01*
X1366012Y7921244D01*
X1376426Y7921244D01*
X1386839Y7916163D01*
X1391920Y7910829D01*
X1397000Y7895336D01*
X1397000Y7848600D01*
X1397000Y7884921D02*
G01*
X1454150Y7921244D01*
X1371092Y7960868D02*
G01*
X1366012Y7960868D01*
X1355597Y7965947D01*
X1350263Y7971281D01*
X1345184Y7981695D01*
X1345184Y8002270D01*
X1350263Y8012684D01*
X1355597Y8018018D01*
X1366012Y8023097D01*
X1376426Y8023097D01*
X1386839Y8018018D01*
X1402334Y8007604D01*
X1454150Y7955534D01*
X1454150Y8028431D01*
X3478784Y7912100D02*
G01*
X3587750Y7912100D01*
X3478784Y7912100D02*
G01*
X3478784Y7958836D01*
X3483863Y7974329D01*
X3489197Y7979663D01*
X3499611Y7984744D01*
X3510025Y7984744D01*
X3520440Y7979663D01*
X3525520Y7974329D01*
X3530600Y7958836D01*
X3530600Y7912100D01*
X3530600Y7948421D02*
G01*
X3587750Y7984744D01*
X3478784Y8029447D02*
G01*
X3478784Y8086597D01*
X3520440Y8055610D01*
X3520440Y8071104D01*
X3525520Y8081518D01*
X3530600Y8086597D01*
X3546347Y8091931D01*
X3556761Y8091931D01*
X3572256Y8086597D01*
X3582670Y8076184D01*
X3587750Y8060689D01*
X3587750Y8045195D01*
X3582670Y8029447D01*
X3577590Y8024368D01*
X3567175Y8019034D01*
X3859784Y7454900D02*
G01*
X3968750Y7454900D01*
X3859784Y7454900D02*
G01*
X3859784Y7501636D01*
X3864863Y7517129D01*
X3870197Y7522463D01*
X3880611Y7527544D01*
X3891025Y7527544D01*
X3901440Y7522463D01*
X3906520Y7517129D01*
X3911600Y7501636D01*
X3911600Y7454900D01*
X3911600Y7491221D02*
G01*
X3968750Y7527544D01*
X3859784Y7613904D02*
G01*
X3932427Y7561834D01*
X3932427Y7639812D01*
X3859784Y7613904D02*
G01*
X3968750Y7613904D01*
G36*
X1028598Y6084366D02*
G01*
X1028700Y5638800D01*
X1040028Y5650738D01*
X1050747Y5663285D01*
X1060805Y5676392D01*
X1070152Y5689955D01*
X1078738Y5704027D01*
X1082802Y5711240D01*
X1090269Y5725922D01*
X1096975Y5741009D01*
X1102918Y5756402D01*
X1107998Y5772099D01*
X1112266Y5787999D01*
X1114094Y5796026D01*
X1117092Y5812282D01*
X1119225Y5828639D01*
X1120546Y5845048D01*
X1120952Y5861558D01*
X1120546Y5878017D01*
X1119225Y5894476D01*
X1117092Y5910834D01*
X1114094Y5927039D01*
X1110234Y5943092D01*
X1105560Y5958890D01*
X1102918Y5966714D01*
X1096975Y5982106D01*
X1090269Y5997143D01*
X1082802Y6011875D01*
X1074521Y6026150D01*
X1065580Y6039967D01*
X1055878Y6053328D01*
X1045514Y6066129D01*
X1034440Y6078372D01*
G37*
G36*
X4267200Y6146800D02*
G01*
X4255871Y6134862D01*
X4245152Y6122314D01*
X4235094Y6109208D01*
X4225747Y6095644D01*
X4217162Y6081572D01*
X4213098Y6074359D01*
X4205630Y6059678D01*
X4198924Y6044590D01*
X4192981Y6029198D01*
X4187901Y6013500D01*
X4183634Y5997600D01*
X4181805Y5989574D01*
X4178808Y5973318D01*
X4176674Y5956960D01*
X4175353Y5940552D01*
X4174947Y5924042D01*
X4175353Y5907582D01*
X4176674Y5891123D01*
X4178808Y5874766D01*
X4181805Y5858560D01*
X4185665Y5842508D01*
X4190339Y5826709D01*
X4192981Y5818886D01*
X4198924Y5803493D01*
X4205630Y5788456D01*
X4213098Y5773724D01*
X4221378Y5759450D01*
X4230319Y5745632D01*
X4240022Y5732272D01*
X4250385Y5719470D01*
X4261459Y5707227D01*
X4267301Y5701233D01*
G37*
D12*
X2586197Y5918680D02*
G01*
X2294691Y5918680D01*
X3064692Y5918680D02*
G01*
X2773202Y5918680D01*
X2669692Y4238678D02*
G01*
X2669692Y3984678D01*
X2294691Y5918680D02*
G01*
X2294691Y5628680D01*
X3064692Y5918680D02*
G01*
X3064692Y5638680D01*
X2679692Y5545681D02*
G01*
X2679692Y5291681D01*
X2542692Y5418681D02*
G01*
X2796692Y5418681D01*
D13*
X3947500Y5097398D02*
G01*
X4307499Y5097398D01*
X1128100Y5097398D02*
G01*
X1488099Y5097398D01*
D12*
X1206500Y7086600D02*
G01*
X1206500Y7061200D01*
X1206500Y7594600D02*
G01*
X1206500Y7620000D01*
X1206500Y7086600D02*
G01*
X1130300Y7086600D01*
X1282700Y7086600D02*
G01*
X1206500Y7086600D01*
X1282700Y7594600D02*
G01*
X1282700Y7086600D01*
X1206500Y7594600D02*
G01*
X1282700Y7594600D01*
X1130300Y7594600D02*
G01*
X1206500Y7594600D01*
X1130300Y7086600D02*
G01*
X1130300Y7594600D01*
X1587500Y7594600D02*
G01*
X1587500Y7569200D01*
X1587500Y8102600D02*
G01*
X1587500Y8128000D01*
X1587500Y7594600D02*
G01*
X1511300Y7594600D01*
X1663700Y7594600D02*
G01*
X1587500Y7594600D01*
X1663700Y8102600D02*
G01*
X1663700Y7594600D01*
X1587500Y8102600D02*
G01*
X1663700Y8102600D01*
X1511300Y8102600D02*
G01*
X1587500Y8102600D01*
X1511300Y7594600D02*
G01*
X1511300Y8102600D01*
X3721100Y7658100D02*
G01*
X3721100Y7632700D01*
X3721100Y8166100D02*
G01*
X3721100Y8191500D01*
X3721100Y7658100D02*
G01*
X3644900Y7658100D01*
X3797300Y7658100D02*
G01*
X3721100Y7658100D01*
X3797300Y8166100D02*
G01*
X3797300Y7658100D01*
X3721100Y8166100D02*
G01*
X3797300Y8166100D01*
X3644900Y8166100D02*
G01*
X3721100Y8166100D01*
X3644900Y7658100D02*
G01*
X3644900Y8166100D01*
X4102100Y7200900D02*
G01*
X4102100Y7175500D01*
X4102100Y7708900D02*
G01*
X4102100Y7734300D01*
X4102100Y7200900D02*
G01*
X4025900Y7200900D01*
X4178300Y7200900D02*
G01*
X4102100Y7200900D01*
X4178300Y7708900D02*
G01*
X4178300Y7200900D01*
X4102100Y7708900D02*
G01*
X4178300Y7708900D01*
X4025900Y7708900D02*
G01*
X4102100Y7708900D01*
X4025900Y7200900D02*
G01*
X4025900Y7708900D01*
G75*
G01*
X2259693Y5478681D02*
G03*
X2268525Y5482821I420531J-885558D01*
G75*
G01*
X2294692Y5628681D02*
G03*
X3063690Y5629427I385505J-1035572D01*
G75*
G01*
X485089Y5867400D02*
G02*
X1115111Y5867400I315011J0D01*
G75*
G01*
X1115111Y5867400D02*
G02*
X485089Y5867400I-315011J0D01*
G75*
G01*
X4810811Y5918200D02*
G02*
X4180789Y5918200I-315011J0D01*
G75*
G01*
X4180789Y5918200D02*
G02*
X4810811Y5918200I315011J0D01*
D13*
G75*
G01*
X4306992Y5097805D02*
G03*
X3948102Y5097450I-179585J140819D01*
G75*
G01*
X1487592Y5097805D02*
G03*
X1128702Y5097450I-179585J140819D01*
D12*
G75*
G01
X1115111Y5867400D02*
G03X1115111Y5867400I-315011J0D01*
G75*
G01
X4810811Y5918200D02*
G03X4810811Y5918200I-315011J0D01*
M02*
