G04 Layer: TopLayer*
G04 EasyEDA v6.5.50, 2025-05-04 21:41:00*
G04 ca8d08ed92a845228751cf11d91fab5a,29578758438443b98db2ef743fe8f290,10*
G04 Gerber Generator version 0.2*
G04 Scale: 100 percent, Rotated: No, Reflected: No *
G04 Dimensions in millimeters *
G04 leading zeros omitted , absolute positions ,4 integer and 5 decimal *
%FSLAX45Y45*%
%MOMM*%

%ADD10C,0.2540*%
%ADD11C,1.6510*%
%ADD12C,2.0000*%
%ADD13C,1.7500*%
%ADD14C,1.0000*%
%ADD15R,1.0000X1.0000*%
%ADD16C,1.8796*%
%ADD17C,0.0133*%

%LPD*%
D10*
X3971137Y7966887D02*
G01*
X3721100Y8216900D01*
X3721100Y8293100D01*
X4102100Y7835900D02*
G01*
X3971137Y7966887D01*
X3971137Y7966887D02*
G01*
X2679700Y6675450D01*
X2679700Y5838697D01*
X4127500Y5232400D02*
G01*
X4127500Y5674893D01*
X4370806Y5918200D01*
X925093Y5867400D02*
G01*
X1308100Y5484393D01*
X1308100Y5232400D01*
X4620793Y5918200D02*
G01*
X4497273Y6041720D01*
X3793870Y6041720D01*
X3632200Y5880049D01*
X4102100Y7073900D02*
G01*
X3632200Y6604000D01*
X3632200Y6134049D01*
X1206500Y6959600D02*
G01*
X1739900Y6426200D01*
X1739900Y6108649D01*
X3997502Y5232400D02*
G01*
X3997502Y5154472D01*
X3997502Y5154472D02*
G01*
X3995470Y5154472D01*
X2679700Y3838702D01*
D11*
G01*
X1739900Y6108649D03*
G01*
X1739900Y5854649D03*
G01*
X3632200Y6134049D03*
G01*
X3632200Y5880049D03*
D12*
G01*
X2679700Y5838697D03*
G01*
X2679700Y3838702D03*
D13*
G01*
X675106Y5867400D03*
G01*
X925093Y5867400D03*
G01*
X4620793Y5918200D03*
G01*
X4370806Y5918200D03*
D14*
G01*
X4257497Y5232400D03*
G01*
X4127500Y5232400D03*
D15*
G01*
X3997502Y5232400D03*
D14*
G01*
X1438097Y5232400D03*
G01*
X1308100Y5232400D03*
D15*
G01*
X1178102Y5232400D03*
D16*
G01*
X1206500Y6959600D03*
G01*
X1206500Y7721600D03*
G01*
X1587500Y7467600D03*
G01*
X1587500Y8229600D03*
G01*
X3721100Y7531100D03*
G01*
X3721100Y8293100D03*
G01*
X4102100Y7073900D03*
G01*
X4102100Y7835900D03*
M02*
