G04 Layer: BoardOutlineLayer*
G04 EasyEDA v6.5.50, 2025-05-04 21:41:00*
G04 ca8d08ed92a845228751cf11d91fab5a,29578758438443b98db2ef743fe8f290,10*
G04 Gerber Generator version 0.2*
G04 Scale: 100 percent, Rotated: No, Reflected: No *
G04 Dimensions in millimeters *
G04 leading zeros omitted , absolute positions ,4 integer and 5 decimal *
%FSLAX45Y45*%
%MOMM*%

%ADD10C,0.2540*%
%ADD11C,0.0139*%
D10*
X2039541Y3455093D02*
G01*
X2322672Y3283104D01*
X2401018Y3248205D01*
X2649971Y3212050D01*
X2773288Y3211822D01*
X2773288Y3211822D02*
G01*
X2867223Y3215568D01*
X3031642Y3270491D01*
X3196902Y3330945D01*
X3307717Y3418390D01*
X3481138Y3565748D01*
X3533391Y3642009D01*
X3655095Y3842842D01*
X3692413Y3886144D01*
X3920901Y4120263D01*
X3942433Y4146971D01*
X4019511Y4260204D01*
X4036430Y4289562D01*
X4108239Y4448355D01*
X4129659Y4489389D01*
X4384946Y4841341D01*
X4471466Y4974102D01*
X4544405Y5331086D01*
X4552863Y5339438D01*
X4623544Y5315445D01*
X4838700Y5232400D01*
X4826000Y5562600D01*
X5156200Y5295900D01*
X4762500Y5981700D01*
X5422900Y5638800D01*
X5422900Y5626100D02*
G01*
X4864100Y6273800D01*
X5360875Y6072416D01*
X4851400Y6591300D01*
X5246936Y6583268D01*
X4882344Y6706468D01*
X5245100Y6756400D01*
X4927600Y7073900D01*
X4737100Y7302500D01*
X5068862Y7186940D01*
X5359400Y7035800D01*
X5105400Y7315200D01*
X4775200Y7670800D01*
X5181600Y7683500D01*
X5003800Y7772400D01*
X4673600Y7950200D01*
X5334000Y8013700D01*
X4559300Y8178800D01*
X4998305Y8582670D01*
X4013200Y8343900D01*
X4292600Y9017000D01*
X3619500Y8458200D01*
X3619500Y9042400D01*
X3124200Y8420100D01*
X2971800Y9194800D01*
X2692400Y8470900D01*
X2628900Y8648700D01*
X2514600Y8991600D01*
X2527300Y8763000D01*
X2552700Y8585200D01*
X2578100Y8318500D01*
X2260600Y8661400D01*
X1955800Y9055100D01*
X2025873Y8779055D01*
X2082800Y8331200D01*
X1854200Y8509000D01*
X1358900Y8864600D01*
X1600200Y8369300D01*
X881001Y8648860D01*
X1102916Y8303219D01*
X366768Y8393267D01*
X899208Y8151837D01*
X183642Y8045002D01*
X634479Y7959681D01*
X63500Y7518400D01*
X596900Y7645400D01*
X38100Y6972300D01*
X509686Y7206028D01*
X227180Y6995665D01*
X-38100Y6819900D01*
X320248Y6783989D01*
X546100Y6731000D01*
X276788Y6646148D01*
X-127000Y6540500D01*
X444500Y6515100D01*
X-101600Y6083300D01*
X457200Y6172200D01*
X46756Y5644057D01*
X419788Y5742706D01*
X274637Y5296476D01*
X495038Y5410535D01*
X381137Y5182425D01*
X701024Y5368025D01*
X828601Y5268229D01*
X881763Y5203243D01*
X1028705Y4869141D01*
X1300906Y4477555D01*
X1483723Y4098554D01*
X1544370Y4033669D01*
X1684939Y3923878D01*
X1724626Y3880177D01*
X1981299Y3511903D01*
X2039541Y3455093D01*

%LPD*%
M02*
