G04 Layer: BottomSilkscreenLayer*
G04 EasyEDA v6.5.50, 2025-05-04 21:41:00*
G04 ca8d08ed92a845228751cf11d91fab5a,29578758438443b98db2ef743fe8f290,10*
G04 Gerber Generator version 0.2*
G04 Scale: 100 percent, Rotated: No, Reflected: No *
G04 Dimensions in millimeters *
G04 leading zeros omitted , absolute positions ,4 integer and 5 decimal *
%FSLAX45Y45*%
%MOMM*%

%ADD10C,0.2540*%
%ADD11C,0.0120*%

%LPD*%
G36*
X2979369Y9210294D02*
G01*
X2944672Y9131757D01*
X2692806Y8499449D01*
X2683002Y8499195D01*
X2502458Y9014307D01*
X2498344Y9009634D01*
X2557322Y8398865D01*
X2552344Y8383676D01*
X1954834Y9067800D01*
X1954834Y9052001D01*
X2050897Y8382863D01*
X2043734Y8375700D01*
X1344625Y8899906D01*
X1411478Y8756599D01*
X1595932Y8377072D01*
X1590802Y8377072D01*
X834034Y8682329D01*
X826922Y8675268D01*
X1110234Y8298129D01*
X1103376Y8292998D01*
X326136Y8393785D01*
X311962Y8389772D01*
X854862Y8145983D01*
X815187Y8133740D01*
X142748Y8035036D01*
X135432Y8028076D01*
X151485Y8027974D01*
X612292Y7941360D01*
X616458Y7936433D01*
X66598Y7543800D01*
X30886Y7513269D01*
X13208Y7513269D01*
X22199Y7504277D01*
X603808Y7661909D01*
X608634Y7657134D01*
X218939Y7207910D01*
X540105Y7207910D01*
X540105Y7199172D01*
X531368Y7199172D01*
X531368Y7207910D01*
X218939Y7207910D01*
X18389Y6976668D01*
X22606Y6971639D01*
X448360Y7166356D01*
X522630Y7198563D01*
X522630Y7192518D01*
X-35763Y6837121D01*
X-5740Y6825234D01*
X522630Y6741871D01*
X522630Y6731660D01*
X72847Y6594094D01*
X-119278Y6531711D01*
X455218Y6522974D01*
X359033Y6446367D01*
X774242Y6446367D01*
X809193Y6514287D01*
X862837Y6565138D01*
X928725Y6604253D01*
X940511Y6605879D01*
X906881Y6510324D01*
X906881Y6500774D01*
X976731Y6500774D01*
X1022197Y6618986D01*
X1062075Y6732371D01*
X1210513Y7168642D01*
X1450238Y7620914D01*
X1593697Y7814614D01*
X1641652Y7846009D01*
X1784553Y7879029D01*
X1889353Y7871561D01*
X2212492Y7850784D01*
X2378405Y7763764D01*
X2502408Y7698384D01*
X2646222Y7624419D01*
X2720441Y7616037D01*
X2771394Y7643215D01*
X2902407Y7757617D01*
X3094532Y7840472D01*
X3260445Y7836763D01*
X3555339Y7872628D01*
X3630574Y7851597D01*
X3732022Y7770063D01*
X4050182Y7325715D01*
X4167174Y6976668D01*
X4307027Y6680047D01*
X4336897Y6636410D01*
X4349081Y6588759D01*
X4426305Y6588759D01*
X4500524Y6551117D01*
X4593336Y6491986D01*
X4616450Y6435750D01*
X4628337Y6374688D01*
X4542485Y6465265D01*
X4494885Y6477203D01*
X4454347Y6458762D01*
X4426305Y6570218D01*
X4426305Y6588759D01*
X4349081Y6588759D01*
X4408830Y6355130D01*
X4407560Y6252514D01*
X4378499Y6040424D01*
X4449470Y6040424D01*
X4478934Y6269990D01*
X4478731Y6384239D01*
X4499813Y6405372D01*
X4591761Y6314694D01*
X4627168Y6209893D01*
X4627168Y6080150D01*
X4573320Y5986119D01*
X4585716Y5735777D01*
X4538827Y5595112D01*
X4516678Y5576671D01*
X4481118Y5641746D01*
X4461357Y5766663D01*
X4525314Y5901182D01*
X4525314Y5950000D01*
X4449470Y6040424D01*
X4378499Y6040424D01*
X4368088Y5964580D01*
X4354779Y6051854D01*
X4321860Y6188202D01*
X4252010Y6337046D01*
X4174490Y6445554D01*
X4027881Y6584086D01*
X3854297Y6673799D01*
X3749497Y6705955D01*
X3470046Y6706209D01*
X3347770Y6664655D01*
X3247593Y6615633D01*
X3169107Y6561632D01*
X3064154Y6464604D01*
X2983382Y6357213D01*
X2913481Y6217615D01*
X2907842Y6211468D01*
X2718968Y6274308D01*
X2629001Y6274308D01*
X2448814Y6211671D01*
X2441143Y6234684D01*
X2356561Y6403441D01*
X2259838Y6526936D01*
X2164130Y6604863D01*
X2037791Y6683349D01*
X1871878Y6740601D01*
X1609902Y6741109D01*
X1496364Y6707886D01*
X1391564Y6661048D01*
X1286764Y6594195D01*
X1163218Y6470650D01*
X1092657Y6365951D01*
X1038047Y6257696D01*
X993394Y6104178D01*
X981412Y6002324D01*
X1142695Y6002324D01*
X1167892Y6134049D01*
X1210716Y6239916D01*
X1269288Y6337147D01*
X1378305Y6449110D01*
X1485087Y6518046D01*
X1583690Y6555079D01*
X1653539Y6570065D01*
X1854403Y6564934D01*
X1962099Y6527647D01*
X2068118Y6465570D01*
X2174849Y6366865D01*
X2240635Y6269990D01*
X2286863Y6178651D01*
X2313940Y6078016D01*
X2328062Y5932627D01*
X2313076Y5784951D01*
X2268067Y5650484D01*
X2187600Y5519623D01*
X2059228Y5393740D01*
X1915566Y5322976D01*
X1793290Y5297424D01*
X1671015Y5297424D01*
X1548739Y5323078D01*
X1417777Y5387086D01*
X1267764Y5537047D01*
X1196238Y5659221D01*
X1161034Y5765038D01*
X1142796Y5877356D01*
X1142695Y6002324D01*
X981412Y6002324D01*
X979017Y5982055D01*
X976731Y6500774D01*
X906881Y6500774D01*
X906881Y6430873D01*
X855929Y6468465D01*
X806450Y6460032D01*
X774242Y6446367D01*
X359033Y6446367D01*
X-133299Y6054242D01*
X-128016Y6049060D01*
X463956Y6187541D01*
X471170Y6180328D01*
X389082Y6086754D01*
X704443Y6086754D01*
X713790Y6168593D01*
X813104Y6383375D01*
X832662Y6396228D01*
X841400Y6396329D01*
X906881Y6334302D01*
X906881Y6013958D01*
X810818Y5922365D01*
X810818Y5889548D01*
X877824Y5889548D01*
X900277Y5916625D01*
X906881Y5916625D01*
X906881Y5860491D01*
X877824Y5889548D01*
X810818Y5889548D01*
X810818Y5872175D01*
X898144Y5742889D01*
X898144Y5715558D01*
X843330Y5585053D01*
X832002Y5585053D01*
X747318Y5670905D01*
X756361Y5955893D01*
X704443Y6086754D01*
X389082Y6086754D01*
X-8839Y5633212D01*
X-5080Y5629452D01*
X387248Y5750560D01*
X407771Y5750814D01*
X322644Y5496102D01*
X679805Y5496102D01*
X680364Y5650484D01*
X706577Y5615584D01*
X815136Y5504789D01*
X880618Y5513578D01*
X871677Y5449824D01*
X855980Y5313172D01*
X845210Y5302402D01*
X706221Y5440476D01*
X679805Y5496102D01*
X322644Y5496102D01*
X260604Y5310581D01*
X260604Y5296966D01*
X457098Y5397296D01*
X471220Y5403646D01*
X355752Y5173370D01*
X369773Y5181244D01*
X673150Y5360060D01*
X715772Y5337251D01*
X841352Y5205120D01*
X914704Y5205120D01*
X976731Y5739841D01*
X978966Y5886043D01*
X994460Y5763920D01*
X1029258Y5636717D01*
X1079093Y5526989D01*
X1145032Y5423662D01*
X1230376Y5324856D01*
X1356664Y5228234D01*
X1505102Y5158943D01*
X1618640Y5127498D01*
X1863140Y5127244D01*
X1976678Y5157978D01*
X2103221Y5217718D01*
X2186279Y5274614D01*
X2270810Y5353304D01*
X2355646Y5459882D01*
X2424684Y5589422D01*
X2462174Y5702858D01*
X2492603Y5877356D01*
X2631643Y5925870D01*
X2739237Y5918758D01*
X2815157Y5891530D01*
X3017723Y5891530D01*
X3027984Y6069279D01*
X3065678Y6191453D01*
X3125063Y6305143D01*
X3211372Y6411671D01*
X3321558Y6494983D01*
X3426358Y6544208D01*
X3522421Y6569811D01*
X3688384Y6570725D01*
X3799890Y6544462D01*
X3941622Y6471208D01*
X4081373Y6331051D01*
X4147312Y6217615D01*
X4192981Y6078016D01*
X4198249Y5943803D01*
X4435043Y5943803D01*
X4452518Y5933033D01*
X4452518Y5900166D01*
X4435043Y5889396D01*
X4435043Y5943803D01*
X4198249Y5943803D01*
X4201312Y5865774D01*
X4180535Y5746445D01*
X4135628Y5633059D01*
X4057294Y5510885D01*
X3939184Y5396280D01*
X3793185Y5322824D01*
X3662172Y5295392D01*
X3496259Y5304485D01*
X3382467Y5340197D01*
X3273856Y5406186D01*
X3166008Y5510885D01*
X3084169Y5635447D01*
X3039719Y5755284D01*
X3017723Y5891530D01*
X2815157Y5891530D01*
X2853588Y5877763D01*
X2864053Y5781344D01*
X2890367Y5641746D01*
X2949041Y5505348D01*
X3007207Y5409133D01*
X3094532Y5306212D01*
X3193440Y5222951D01*
X3312820Y5151628D01*
X3410508Y5115204D01*
X3543554Y5087721D01*
X3682847Y5087721D01*
X3802430Y5112867D01*
X3930497Y5160264D01*
X4055160Y5242001D01*
X4144873Y5323179D01*
X4241647Y5449824D01*
X4310888Y5589422D01*
X4345787Y5702858D01*
X4365244Y5833719D01*
X4369612Y5886043D01*
X4410405Y5641746D01*
X4439331Y5503113D01*
X4511954Y5503113D01*
X4584801Y5535930D01*
X4615942Y5598160D01*
X4655464Y5729020D01*
X4645812Y5982055D01*
X4681016Y5694121D01*
X4654651Y5521147D01*
X4621022Y5475986D01*
X4538776Y5416854D01*
X4523282Y5432348D01*
X4511954Y5503113D01*
X4439331Y5503113D01*
X4468266Y5364632D01*
X4453483Y5318963D01*
X4398314Y5022291D01*
X4376521Y4969916D01*
X4049115Y4519828D01*
X3955694Y4311954D01*
X3866337Y4184802D01*
X3591509Y3896766D01*
X3427831Y3628288D01*
X3173120Y3410965D01*
X3122777Y3384702D01*
X2823768Y3281832D01*
X2619502Y3281679D01*
X2382418Y3316478D01*
X2325979Y3341115D01*
X2011832Y3531971D01*
X1713839Y3957828D01*
X1574952Y4067149D01*
X1496364Y4141063D01*
X1324406Y4507534D01*
X1049934Y4900117D01*
X914704Y5205120D01*
X841400Y5205069D01*
X981100Y4878476D01*
X1258519Y4481322D01*
X1431848Y4115257D01*
X1476095Y4057294D01*
X1663801Y3909415D01*
X1949246Y3498799D01*
X2011629Y3450234D01*
X2301798Y3273044D01*
X2360980Y3248355D01*
X2622702Y3210306D01*
X2867456Y3217926D01*
X3159760Y3324606D01*
X3202584Y3347110D01*
X3480257Y3578758D01*
X3644239Y3853129D01*
X3916730Y4132326D01*
X4021683Y4289399D01*
X4110431Y4484725D01*
X4437329Y4935067D01*
X4463338Y4996129D01*
X4524705Y5318963D01*
X4536287Y5331968D01*
X4823053Y5236057D01*
X4839055Y5236057D01*
X4831181Y5523077D01*
X4849876Y5512663D01*
X5096154Y5349951D01*
X5170119Y5278272D01*
X5179263Y5287365D01*
X5013401Y5571947D01*
X4791608Y5961634D01*
X4797450Y5966714D01*
X5417515Y5635701D01*
X5441899Y5625846D01*
X4910988Y6235242D01*
X4887061Y6265570D01*
X5199024Y6116066D01*
X5318099Y6063843D01*
X5345531Y6069279D01*
X5276037Y6156553D01*
X5146802Y6298438D01*
X4876647Y6581546D01*
X5308346Y6575348D01*
X5308346Y6577177D01*
X4806289Y6723684D01*
X5282133Y6728307D01*
X5282133Y6743750D01*
X4714392Y7297928D01*
X4719726Y7303262D01*
X5295239Y7049465D01*
X5352186Y7025487D01*
X5334965Y7055205D01*
X4822088Y7674711D01*
X5162245Y7679436D01*
X4771288Y7942986D01*
X4748885Y7963763D01*
X5338927Y8020507D01*
X5370626Y8032750D01*
X4614062Y8179257D01*
X4572304Y8190230D01*
X5001463Y8581898D01*
X4998313Y8584590D01*
X4020667Y8334451D01*
X4017772Y8337803D01*
X4128312Y8617000D01*
X4302201Y9057589D01*
X4296918Y9057589D01*
X3627221Y8473744D01*
X3618484Y9111437D01*
X3138881Y8447633D01*
X3129432Y8456777D01*
G37*
G36*
X2513787Y5829350D02*
G01*
X2513787Y5522823D01*
X2494127Y5484723D01*
X2457856Y5444998D01*
X2504541Y5398363D01*
X2550414Y5441086D01*
X2583637Y5505856D01*
X2583637Y5829350D01*
G37*
G36*
X2767025Y5829350D02*
G01*
X2767025Y5505958D01*
X2791053Y5449824D01*
X2845968Y5398211D01*
X2892094Y5444286D01*
X2836875Y5507126D01*
X2836875Y5829350D01*
G37*
G36*
X2434336Y5384393D02*
G01*
X2378405Y5382818D01*
X2322728Y5366715D01*
X2268778Y5301488D01*
X2231288Y5224373D01*
X2229916Y5074462D01*
X2286762Y4985816D01*
X2331212Y4965598D01*
X2451201Y4965598D01*
X2458212Y4986680D01*
X2544318Y4907330D01*
X2637586Y4834686D01*
X2710281Y4834890D01*
X2799740Y4876495D01*
X2864866Y4981905D01*
X2907893Y4965598D01*
X3024632Y4965852D01*
X3068320Y4987848D01*
X3126384Y5083352D01*
X3119475Y5231688D01*
X3082239Y5303520D01*
X3034182Y5360568D01*
X2977184Y5384393D01*
X2911094Y5383784D01*
X2873095Y5362549D01*
X2823768Y5298287D01*
X2777794Y5240426D01*
X2765856Y5201158D01*
X2836570Y5201158D01*
X2925826Y5314594D01*
X2966466Y5314594D01*
X2994710Y5303774D01*
X3048965Y5224932D01*
X3057347Y5108397D01*
X3028543Y5052822D01*
X3019653Y5052822D01*
X3035706Y5083352D01*
X3020568Y5123383D01*
X2959709Y5148783D01*
X2893669Y5148732D01*
X2825851Y5129885D01*
X2743047Y5052517D01*
X2713736Y4948123D01*
X2670352Y4948123D01*
X2627477Y4976215D01*
X2609850Y5041544D01*
X2517851Y5128463D01*
X2391714Y5159349D01*
X2304846Y5128158D01*
X2296007Y5100828D01*
X2303729Y5220716D01*
X2357170Y5303977D01*
X2395880Y5314340D01*
X2434742Y5314594D01*
X2461158Y5266588D01*
X2519984Y5201158D01*
X2583637Y5201158D01*
X2583637Y5223459D01*
X2544318Y5277053D01*
X2479395Y5363870D01*
G37*
G36*
X1518818Y5017922D02*
G01*
X1499108Y4981194D01*
X1508175Y4932883D01*
X1602333Y4932883D01*
X1636115Y4922164D01*
X1730959Y4891430D01*
X1738034Y4860899D01*
X1829460Y4860899D01*
X1915566Y4832400D01*
X1928875Y4820513D01*
X1908962Y4760569D01*
X1881632Y4738725D01*
X1850643Y4738725D01*
X1830070Y4777181D01*
X1807972Y4860899D01*
X1738034Y4860899D01*
X1753260Y4795469D01*
X1753971Y4769866D01*
X1656537Y4865268D01*
X1602333Y4932883D01*
X1508175Y4932883D01*
X1510080Y4922723D01*
X1662277Y4760112D01*
X1735629Y4679746D01*
X2023211Y4679746D01*
X2045512Y4791659D01*
X2067306Y4783328D01*
X2136749Y4764633D01*
X2198674Y4738776D01*
X2148027Y4629658D01*
X2065070Y4565243D01*
X2053336Y4572457D01*
X2023211Y4679746D01*
X1735629Y4679746D01*
X1785334Y4625289D01*
X1970379Y4625289D01*
X1982419Y4561179D01*
X1998165Y4521860D01*
X2225598Y4521860D01*
X2225598Y4571136D01*
X2261463Y4690770D01*
X2268423Y4711903D01*
X2357120Y4675073D01*
X2356612Y4655820D01*
X2966212Y4655820D01*
X3077057Y4702403D01*
X3096463Y4703826D01*
X3133801Y4606290D01*
X3133801Y4566412D01*
X3122726Y4511141D01*
X3078467Y4488738D01*
X3203194Y4488738D01*
X3220669Y4506163D01*
X3265627Y4485690D01*
X3314852Y4485690D01*
X3358642Y4520133D01*
X3397707Y4616246D01*
X3478784Y4667707D01*
X3519525Y4668926D01*
X3461969Y4594758D01*
X3235198Y4371797D01*
X3223158Y4394098D01*
X3203194Y4488738D01*
X3078467Y4488738D01*
X3077057Y4488027D01*
X3013913Y4476648D01*
X2977286Y4507534D01*
X2966212Y4655820D01*
X2356612Y4655820D01*
X2356038Y4634026D01*
X2636012Y4634026D01*
X2636012Y4391609D01*
X2615575Y4383735D01*
X2705912Y4383735D01*
X2705912Y4622393D01*
X2717546Y4634026D01*
X2887421Y4634026D01*
X2896108Y4611370D01*
X2888204Y4416450D01*
X3081426Y4416450D01*
X3120694Y4432249D01*
X3142234Y4433366D01*
X3153054Y4385360D01*
X3170580Y4315714D01*
X3095142Y4250791D01*
X3081680Y4271924D01*
X3081426Y4416450D01*
X2888204Y4416450D01*
X2886862Y4383328D01*
X2838551Y4354830D01*
X2737815Y4354830D01*
X2705912Y4383735D01*
X2615575Y4383735D01*
X2608427Y4380992D01*
X2488793Y4380992D01*
X2461361Y4408424D01*
X2461361Y4634026D01*
X2356038Y4634026D01*
X2352192Y4490059D01*
X2272639Y4484878D01*
X2225598Y4521860D01*
X1998165Y4521860D01*
X2009190Y4494276D01*
X2050897Y4483811D01*
X2093468Y4494479D01*
X2155698Y4457801D01*
X2155698Y4444238D01*
X2132076Y4385360D01*
X2121154Y4354423D01*
X2084832Y4376623D01*
X1898091Y4602226D01*
X1884121Y4625289D01*
X1785334Y4625289D01*
X1829104Y4577334D01*
X1992325Y4376623D01*
X2048843Y4316780D01*
X2181301Y4316780D01*
X2219248Y4415891D01*
X2226462Y4415891D01*
X2277973Y4389272D01*
X2277973Y4339793D01*
X2266848Y4258919D01*
X2203754Y4296460D01*
X2181301Y4316780D01*
X2048843Y4316780D01*
X2055266Y4309973D01*
X2203506Y4215841D01*
X2339086Y4215841D01*
X2339086Y4282592D01*
X2350465Y4365396D01*
X2411476Y4355541D01*
X2452624Y4316882D01*
X2452624Y4261307D01*
X2441854Y4182668D01*
X2371750Y4198366D01*
X2339086Y4215841D01*
X2203506Y4215841D01*
X2262547Y4178350D01*
X2512872Y4178350D01*
X2524912Y4311192D01*
X2633726Y4311192D01*
X2638072Y4285030D01*
X2837738Y4285030D01*
X2833504Y4196588D01*
X2906776Y4196588D01*
X2906776Y4309465D01*
X2969869Y4372508D01*
X2998470Y4389221D01*
X3011576Y4389729D01*
X3011576Y4278477D01*
X3021939Y4226661D01*
X2906776Y4196588D01*
X2833504Y4196588D01*
X2832506Y4175963D01*
X2718968Y4147667D01*
X2716022Y4158538D01*
X2708249Y4285030D01*
X2638072Y4285030D01*
X2644546Y4245762D01*
X2644749Y4165803D01*
X2636215Y4157268D01*
X2519934Y4171238D01*
X2512872Y4178350D01*
X2262547Y4178350D01*
X2264867Y4176877D01*
X2362657Y4129379D01*
X2509418Y4102608D01*
X2703677Y4075074D01*
X2858719Y4110126D01*
X3079496Y4168851D01*
X3168345Y4219600D01*
X3442919Y4472635D01*
X3801872Y4880457D01*
X3851706Y4946243D01*
X3839514Y4984597D01*
X3786022Y5007051D01*
X3723284Y4990338D01*
X3234232Y4832858D01*
X3162344Y4809083D01*
X3402177Y4809083D01*
X3408883Y4814874D01*
X3513683Y4850790D01*
X3535527Y4852162D01*
X3535172Y4812893D01*
X3515695Y4770069D01*
X3597351Y4770069D01*
X3609746Y4882083D01*
X3705809Y4912156D01*
X3738930Y4913223D01*
X3653332Y4821631D01*
X3604666Y4762703D01*
X3597351Y4770069D01*
X3515695Y4770069D01*
X3501440Y4738725D01*
X3477006Y4738725D01*
X3423665Y4757318D01*
X3402177Y4809083D01*
X3162344Y4809083D01*
X3112008Y4792472D01*
X2968547Y4732274D01*
X3159353Y4732274D01*
X3166364Y4739233D01*
X3321558Y4787646D01*
X3332937Y4751832D01*
X3334664Y4640884D01*
X3295497Y4555490D01*
X3277260Y4555490D01*
X3196082Y4638395D01*
X3159353Y4732274D01*
X2968547Y4732274D01*
X2911094Y4708194D01*
X2481275Y4702759D01*
X2142591Y4833010D01*
X2021839Y4869942D01*
X1566214Y5017922D01*
G37*
D10*
X1869899Y5758652D02*
G01*
X1609900Y5758652D01*
X3762199Y5784052D02*
G01*
X3502200Y5784052D01*
G75*
G01*
X1601724Y5761482D02*
G02*
X1878076Y5761482I138176J220244D01*
G75*
G01*
X3494024Y5786882D02*
G02*
X3770376Y5786882I138176J220244D01*
M02*
